# Blender v2.66 (sub 1) OBJ File: ''
# www.blender.org
mtllib lol.mtl
o Icosphere.001
v 0.162456 0.850654 0.499995
v 0.525730 0.850652 0.000000
v 0.000000 1.000000 0.000000
v -0.425323 0.850654 0.309011
v -0.425323 0.850654 -0.309011
v 0.162456 0.850654 -0.499995
v 0.000000 -1.000000 -0.000000
v 0.425323 -0.850654 0.309011
v -0.162456 -0.850654 0.499995
v 0.723607 -0.447220 0.525725
v 0.850648 -0.525736 -0.000000
v -0.525730 -0.850652 -0.000000
v -0.162456 -0.850654 -0.499995
v 0.425323 -0.850654 -0.309011
v 0.951058 -0.000000 0.309013
v -0.276388 -0.447220 0.850649
v 0.262869 -0.525738 0.809012
v 0.000000 -0.000000 1.000000
v -0.894426 -0.447216 -0.000000
v -0.688189 -0.525736 0.499997
v -0.951058 -0.000000 0.309013
v -0.276388 -0.447220 -0.850649
v -0.688189 -0.525736 -0.499997
v -0.587786 0.000000 -0.809017
v 0.723607 -0.447220 -0.525725
v 0.262869 -0.525738 -0.809012
v 0.587786 0.000000 -0.809017
v 0.587786 -0.000000 0.809017
v -0.587786 -0.000000 0.809017
v -0.951058 0.000000 -0.309013
v 0.000000 0.000000 -1.000000
v 0.951058 0.000000 -0.309013
v 0.276388 0.447220 0.850649
v 0.688189 0.525736 0.499997
v -0.723607 0.447220 0.525725
v -0.262869 0.525738 0.809012
v -0.723607 0.447220 -0.525725
v -0.850648 0.525736 0.000000
v 0.276388 0.447220 -0.850649
v -0.262869 0.525738 -0.809012
v 0.894426 0.447216 0.000000
v 0.688189 0.525736 -0.499997
vt 0.549999 0.823794
vt 0.750000 0.823792
vt 0.555414 1.000000
vt 0.349999 0.823794
vt 0.150001 0.823794
vt 0.950001 0.823794
vt 1.000000 0.823794
vt 1.000000 0.000000
vt 0.650001 0.176206
vt 0.450001 0.176206
vt 0.650001 0.352414
vt 0.750000 0.323790
vt 0.055414 0.000000
vt 0.250000 0.176208
vt 0.049999 0.176206
vt 1.000000 0.176206
vt 0.849999 0.176206
vt 0.700001 0.500000
vt 0.450001 0.352414
vt 0.550001 0.323789
vt 0.500000 0.500000
vt 0.250000 0.352416
vt 0.350000 0.323790
vt 0.299999 0.500000
vt 0.049999 0.352414
vt 0.150000 0.323790
vt 0.100000 0.500000
vt 0.849999 0.352414
vt 0.949999 0.323789
vt 0.900000 0.500000
vt 0.600000 0.500000
vt 0.400000 0.500000
vt 0.200001 0.500000
vt 0.000000 0.500000
vt 0.799999 0.500000
vt 0.650000 0.676210
vt 0.549999 0.647586
vt 0.349999 0.647586
vt 0.449999 0.676211
vt 0.150001 0.647586
vt 0.250000 0.676210
vt 0.950001 0.647586
vt 1.000000 0.676211
vt 0.750000 0.647584
vt 0.850000 0.676210
vt 1.000000 0.352414
vt 1.000000 0.500000
vt 0.050001 0.676211
vn 0.268034 0.943523 0.194737
vn -0.102381 0.943523 0.315091
vn -0.331305 0.943524 0.000000
vn -0.102381 0.943523 -0.315091
vn 0.268034 0.943523 -0.194737
vn 0.000000 -1.000000 0.000000
vn 0.425306 -0.850642 0.309000
vn -0.162450 -0.850642 0.499985
vn 0.723594 -0.447188 0.525712
vn 0.850642 -0.525712 0.000000
vn -0.525712 -0.850642 0.000000
vn -0.162450 -0.850642 -0.499985
vn 0.425306 -0.850642 -0.309000
vn 0.951048 0.000000 0.309000
vn -0.276376 -0.447218 0.850642
vn 0.262856 -0.525712 0.808985
vn 0.000000 0.000000 0.999969
vn -0.894406 -0.447188 0.000000
vn -0.688162 -0.525712 0.499985
vn -0.951048 0.000000 0.309000
vn -0.276376 -0.447218 -0.850642
vn -0.688162 -0.525712 -0.499985
vn -0.587756 0.000000 -0.809015
vn 0.723594 -0.447188 -0.525712
vn 0.262856 -0.525712 -0.808985
vn 0.587756 0.000000 -0.809015
vn 0.587756 0.000000 0.809015
vn -0.587756 0.000000 0.809015
vn -0.951048 0.000000 -0.309000
vn 0.000000 0.000000 -0.999969
vn 0.951048 0.000000 -0.309000
vn 0.688162 0.525712 0.499985
vn 0.162450 0.850642 0.499985
vn 0.276376 0.447218 0.850642
vn -0.723594 0.447188 0.525712
vn -0.262856 0.525712 0.808985
vn -0.425306 0.850642 0.309000
vn -0.723594 0.447188 -0.525712
vn -0.850642 0.525712 0.000000
vn -0.425306 0.850642 -0.309000
vn 0.276376 0.447218 -0.850642
vn -0.262856 0.525712 -0.808985
vn 0.162450 0.850642 -0.499985
vn 0.894406 0.447188 0.000000
vn 0.688162 0.525712 -0.499985
vn 0.525712 0.850642 0.000000
usemtl None
s off
f 1/1/1 2/2/1 3/3/1
f 4/4/2 1/1/2 3/3/2
f 5/5/3 4/4/3 3/3/3
f 6/6/4 5/7/4 3/3/4
f 2/2/5 6/6/5 3/3/5
s 1
f 7/8/6 8/9/7 9/10/8
f 10/11/9 8/9/7 11/12/10
f 7/13/6 9/10/8 12/14/11
f 7/13/6 12/14/11 13/15/12
f 7/8/6 13/16/12 14/17/13
f 10/11/9 11/12/10 15/18/14
f 16/19/15 17/20/16 18/21/17
f 19/22/18 20/23/19 21/24/20
f 22/25/21 23/26/22 24/27/23
f 25/28/24 26/29/25 27/30/26
f 10/11/9 15/18/14 28/31/27
f 16/19/15 18/21/17 29/32/28
f 19/22/18 21/24/20 30/33/29
f 22/25/21 24/27/23 31/34/30
f 25/28/24 27/30/26 32/35/31
f 34/36/32 1/1/33 33/37/34
f 35/38/35 36/39/36 4/4/37
f 37/40/38 38/41/39 5/5/40
f 39/42/41 40/43/42 6/6/43
f 41/44/44 42/45/45 2/2/46
f 9/10/8 17/20/16 16/19/15
f 9/10/8 8/9/7 17/20/16
f 8/9/7 10/11/9 17/20/16
f 11/12/10 14/17/13 25/28/24
f 11/12/10 8/9/7 14/17/13
f 8/9/7 7/8/6 14/17/13
f 12/14/11 20/23/19 19/22/18
f 12/14/11 9/10/8 20/23/19
f 9/10/8 16/19/15 20/23/19
f 13/15/12 23/26/22 22/25/21
f 13/15/12 12/14/11 23/26/22
f 12/14/11 19/22/18 23/26/22
f 14/17/13 26/29/25 25/28/24
f 14/17/13 13/16/12 26/29/25
f 13/16/12 22/46/21 26/29/25
f 15/18/14 32/35/31 41/44/44
f 15/18/14 11/12/10 32/35/31
f 11/12/10 25/28/24 32/35/31
f 18/21/17 28/31/27 33/37/34
f 18/21/17 17/20/16 28/31/27
f 17/20/16 10/11/9 28/31/27
f 21/24/20 29/32/28 35/38/35
f 21/24/20 20/23/19 29/32/28
f 20/23/19 16/19/15 29/32/28
f 24/27/23 30/33/29 37/40/38
f 24/27/23 23/26/22 30/33/29
f 23/26/22 19/22/18 30/33/29
f 27/30/26 31/47/30 39/42/41
f 27/30/26 26/29/25 31/47/30
f 26/29/25 22/46/21 31/47/30
f 28/31/27 34/36/32 33/37/34
f 28/31/27 15/18/14 34/36/32
f 15/18/14 41/44/44 34/36/32
f 29/32/28 36/39/36 35/38/35
f 29/32/28 18/21/17 36/39/36
f 18/21/17 33/37/34 36/39/36
f 30/33/29 38/41/39 37/40/38
f 30/33/29 21/24/20 38/41/39
f 21/24/20 35/38/35 38/41/39
f 31/47/30 40/43/42 39/42/41
f 31/34/30 24/27/23 40/48/42
f 24/27/23 37/40/38 40/48/42
f 32/35/31 42/45/45 41/44/44
f 32/35/31 27/30/26 42/45/45
f 27/30/26 39/42/41 42/45/45
f 1/1/33 34/36/32 2/2/46
f 34/36/32 41/44/44 2/2/46
f 36/39/36 1/1/33 4/4/37
f 33/37/34 1/1/33 36/39/36
f 5/5/40 38/41/39 4/4/37
f 38/41/39 35/38/35 4/4/37
f 6/6/43 40/43/42 5/7/40
f 40/48/42 37/40/38 5/5/40
f 2/2/46 42/45/45 6/6/43
f 42/45/45 39/42/41 6/6/43
